<svg xmlns="http://www.w3.org/2000/svg" xmlns:xlink="http://www.w3.org/1999/xlink" width="1200" zoomAndPan="magnify" viewBox="0 0 900 299.999988" height="400" preserveAspectRatio="xMidYMid meet" version="1.0"><defs><g/></defs><g fill="#f47c20" fill-opacity="1"><g transform="translate(115.292565, 190.124981)"><g><path d="M 102.15625 -10.765625 L 100.890625 -10.765625 L 89.96875 -20.109375 C 93.664062 -24.441406 96.804688 -29.140625 99.390625 -34.203125 C 101.972656 -39.273438 103.265625 -43.554688 103.265625 -47.046875 C 103.265625 -49.785156 102.5 -51.867188 100.96875 -53.296875 C 99.4375 -54.722656 97.671875 -55.4375 95.671875 -55.4375 C 93.453125 -55.4375 90.914062 -54.722656 88.0625 -53.296875 C 85.207031 -51.867188 82.351562 -50.148438 79.5 -48.140625 C 76.65625 -46.140625 74.070312 -44.242188 71.75 -42.453125 L 71.90625 1.578125 L 70.328125 1.578125 L 57.65625 -6.96875 L 57.8125 -32.15625 C 54.113281 -29.40625 51.078125 -27.289062 48.703125 -25.8125 C 46.328125 -24.332031 44.132812 -23.300781 42.125 -22.71875 C 40.125 -22.144531 37.910156 -21.859375 35.484375 -21.859375 C 30.097656 -21.859375 25.265625 -23.28125 20.984375 -26.125 C 16.710938 -28.976562 13.332031 -32.597656 10.84375 -36.984375 C 8.363281 -41.367188 7.125 -45.722656 7.125 -50.046875 C 7.125 -54.585938 8.335938 -58.492188 10.765625 -61.765625 C 13.191406 -65.046875 16.332031 -67.582031 20.1875 -69.375 C 24.039062 -71.164062 28.03125 -72.0625 32.15625 -72.0625 C 37.539062 -72.0625 42.421875 -70.660156 46.796875 -67.859375 C 51.179688 -65.066406 54.957031 -61.71875 58.125 -57.8125 L 58.453125 -86.328125 L 0.953125 -86.328125 L -4.4375 -96.625 L -4.4375 -98.203125 L 119.90625 -98.203125 L 125.28125 -87.90625 L 125.28125 -86.328125 L 71.4375 -86.328125 L 71.59375 -58.453125 C 75.070312 -60.878906 78.472656 -62.960938 81.796875 -64.703125 C 85.128906 -66.441406 88.007812 -67.3125 90.4375 -67.3125 C 92.34375 -67.3125 94.585938 -66.703125 97.171875 -65.484375 C 99.753906 -64.273438 102.285156 -62.457031 104.765625 -60.03125 C 107.253906 -57.601562 109.316406 -54.59375 110.953125 -51 C 112.585938 -47.40625 113.40625 -43.234375 113.40625 -38.484375 C 113.40625 -33.628906 112.425781 -29.035156 110.46875 -24.703125 C 108.519531 -20.378906 105.75 -15.734375 102.15625 -10.765625 Z M 57.96875 -48.15625 L 57.96875 -49.09375 C 55.226562 -52.050781 51.957031 -54.585938 48.15625 -56.703125 C 44.351562 -58.816406 40.390625 -59.875 36.265625 -59.875 C 31.722656 -59.875 27.628906 -58.5 23.984375 -55.75 C 20.347656 -53.007812 18.53125 -49.050781 18.53125 -43.875 C 18.53125 -39.863281 19.585938 -36.878906 21.703125 -34.921875 C 23.816406 -32.972656 26.296875 -32 29.140625 -32 C 31.671875 -32 34.546875 -32.816406 37.765625 -34.453125 C 40.992188 -36.085938 44.347656 -38.117188 47.828125 -40.546875 C 51.316406 -42.972656 54.695312 -45.507812 57.96875 -48.15625 Z M 57.96875 -48.15625 "/></g></g></g><g fill="#f47c20" fill-opacity="1"><g transform="translate(236.135652, 190.124981)"><g><path d="M 46.71875 -86.328125 L 28.1875 -86.328125 L 28.515625 2.375 L 26.921875 2.375 L 14.25 -5.859375 L 14.890625 -86.328125 L 0.953125 -86.328125 L -4.4375 -96.625 L -4.4375 -98.203125 L 12.515625 -98.203125 C 9.128906 -102.640625 6.117188 -106.019531 3.484375 -108.34375 C 0.523438 -110.875 -2.113281 -112.5625 -4.4375 -113.40625 C -6.757812 -114.25 -8.976562 -114.671875 -11.09375 -114.671875 C -13.625 -114.671875 -16.179688 -114.484375 -18.765625 -114.109375 C -21.359375 -113.742188 -24.128906 -113.242188 -27.078125 -112.609375 L -33.734375 -124.8125 L -33.578125 -125.921875 C -28.828125 -126.867188 -25.265625 -127.472656 -22.890625 -127.734375 C -20.515625 -128.003906 -18.640625 -128.140625 -17.265625 -128.140625 C -13.035156 -128.140625 -9.234375 -127.1875 -5.859375 -125.28125 C -2.484375 -123.382812 1.179688 -120.242188 5.140625 -115.859375 C 9.109375 -111.484375 13.941406 -105.597656 19.640625 -98.203125 L 20.109375 -98.203125 C 15.679688 -106.960938 12.015625 -114.0625 9.109375 -119.5 C 6.203125 -124.9375 3.664062 -129.082031 1.5 -131.9375 C -0.664062 -134.789062 -2.800781 -136.71875 -4.90625 -137.71875 C -7.019531 -138.71875 -9.503906 -139.21875 -12.359375 -139.21875 C -14.578125 -139.21875 -16.875 -139.0625 -19.25 -138.75 C -21.625 -138.4375 -23.757812 -138.066406 -25.65625 -137.640625 L -32.3125 -150 L -32.15625 -151.109375 C -29.40625 -151.523438 -26.628906 -151.890625 -23.828125 -152.203125 C -21.035156 -152.523438 -18.742188 -152.6875 -16.953125 -152.6875 C -10.828125 -152.6875 -5.570312 -150.625 -1.1875 -146.5 C 3.195312 -142.382812 7.550781 -136.210938 11.875 -127.984375 C 16 -120.054688 20.804688 -110.128906 26.296875 -98.203125 L 41.34375 -98.203125 L 46.71875 -87.90625 Z M 46.71875 -86.328125 "/></g></g></g><g fill="#f47c20" fill-opacity="1"><g transform="translate(279.68994, 190.124981)"><g><path d="M 94.71875 -86.328125 L 76.1875 -86.328125 L 76.5 1.578125 L 74.921875 1.578125 L 62.25 -6.65625 L 62.5625 -46.40625 L 34.6875 -46.40625 C 34.6875 -40.28125 34.367188 -36.003906 33.734375 -33.578125 C 33.097656 -31.148438 31.566406 -29.9375 29.140625 -29.9375 C 26.921875 -29.9375 24.546875 -30.617188 22.015625 -31.984375 C 19.484375 -33.359375 17.132812 -35.15625 14.96875 -37.375 C 12.800781 -39.59375 11.03125 -42.019531 9.65625 -44.65625 C 8.289062 -47.300781 7.609375 -49.835938 7.609375 -52.265625 C 7.609375 -55.222656 8.796875 -57.046875 11.171875 -57.734375 C 13.546875 -58.421875 16.789062 -58.765625 20.90625 -58.765625 C 22.8125 -58.765625 25.925781 -58.738281 30.25 -58.6875 C 34.582031 -58.632812 39.570312 -58.523438 45.21875 -58.359375 C 50.863281 -58.203125 56.644531 -58.070312 62.5625 -57.96875 L 62.875 -86.328125 L 0.953125 -86.328125 L -4.4375 -96.625 L -4.4375 -98.203125 L 89.328125 -98.203125 L 94.71875 -87.90625 Z M 94.71875 -86.328125 "/></g></g></g><g fill="#f47c20" fill-opacity="1"><g transform="translate(371.241766, 190.124981)"><g/></g></g><g fill="#003d20" fill-opacity="1"><g transform="translate(349.280293, 120.114365)"><g><path d="M 27.328125 -22.234375 L 19.734375 -14.3125 L 19.734375 0 L 6.71875 0 L 6.71875 -56.609375 L 19.734375 -56.609375 L 19.734375 -30.15625 L 44.796875 -56.609375 L 59.34375 -56.609375 L 35.90625 -31.375 L 60.71875 0 L 45.4375 0 Z M 27.328125 -22.234375 "/></g></g></g><g fill="#003d20" fill-opacity="1"><g transform="translate(406.600986, 120.114365)"><g><path d="M 43.984375 -12.125 L 17.703125 -12.125 L 12.6875 0 L -0.734375 0 L 24.5 -56.609375 L 37.4375 -56.609375 L 62.75 0 L 49 0 Z M 39.859375 -22.078125 L 30.890625 -43.75 L 21.90625 -22.078125 Z M 39.859375 -22.078125 "/></g></g></g><g fill="#003d20" fill-opacity="1"><g transform="translate(468.530306, 120.114365)"><g><path d="M 42.78125 0 L 31.859375 -15.765625 L 19.8125 -15.765625 L 19.8125 0 L 6.71875 0 L 6.71875 -56.609375 L 31.21875 -56.609375 C 36.226562 -56.609375 40.578125 -55.769531 44.265625 -54.09375 C 47.960938 -52.425781 50.804688 -50.054688 52.796875 -46.984375 C 54.796875 -43.910156 55.796875 -40.269531 55.796875 -36.0625 C 55.796875 -31.851562 54.785156 -28.226562 52.765625 -25.1875 C 50.742188 -22.144531 47.875 -19.8125 44.15625 -18.1875 L 56.84375 0 Z M 42.53125 -36.0625 C 42.53125 -39.238281 41.503906 -41.675781 39.453125 -43.375 C 37.410156 -45.070312 34.421875 -45.921875 30.484375 -45.921875 L 19.8125 -45.921875 L 19.8125 -26.203125 L 30.484375 -26.203125 C 34.421875 -26.203125 37.410156 -27.0625 39.453125 -28.78125 C 41.503906 -30.507812 42.53125 -32.9375 42.53125 -36.0625 Z M 42.53125 -36.0625 "/></g></g></g><g fill="#003d20" fill-opacity="1"><g transform="translate(527.953347, 120.114365)"><g><path d="M 50.53125 -10.515625 L 50.53125 0 L 6.71875 0 L 6.71875 -56.609375 L 49.484375 -56.609375 L 49.484375 -46.09375 L 19.734375 -46.09375 L 19.734375 -33.796875 L 46.015625 -33.796875 L 46.015625 -23.609375 L 19.734375 -23.609375 L 19.734375 -10.515625 Z M 50.53125 -10.515625 "/></g></g></g><g fill="#003d20" fill-opacity="1"><g transform="translate(582.040421, 120.114365)"><g><path d="M 44.953125 -29.1875 L 56.921875 -29.1875 L 56.921875 -6.21875 C 53.847656 -3.90625 50.289062 -2.128906 46.25 -0.890625 C 42.207031 0.347656 38.140625 0.96875 34.046875 0.96875 C 28.171875 0.96875 22.882812 -0.28125 18.1875 -2.78125 C 13.5 -5.289062 9.820312 -8.769531 7.15625 -13.21875 C 4.488281 -17.664062 3.15625 -22.691406 3.15625 -28.296875 C 3.15625 -33.898438 4.488281 -38.925781 7.15625 -43.375 C 9.820312 -47.820312 13.523438 -51.300781 18.265625 -53.8125 C 23.015625 -56.320312 28.351562 -57.578125 34.28125 -57.578125 C 39.238281 -57.578125 43.738281 -56.738281 47.78125 -55.0625 C 51.832031 -53.394531 55.226562 -50.96875 57.96875 -47.78125 L 49.5625 -40.03125 C 45.519531 -44.28125 40.644531 -46.40625 34.9375 -46.40625 C 31.320312 -46.40625 28.113281 -45.648438 25.3125 -44.140625 C 22.507812 -42.640625 20.328125 -40.515625 18.765625 -37.765625 C 17.203125 -35.015625 16.421875 -31.859375 16.421875 -28.296875 C 16.421875 -24.796875 17.203125 -21.671875 18.765625 -18.921875 C 20.328125 -16.171875 22.492188 -14.023438 25.265625 -12.484375 C 28.046875 -10.953125 31.210938 -10.1875 34.765625 -10.1875 C 38.546875 -10.1875 41.941406 -10.992188 44.953125 -12.609375 Z M 44.953125 -29.1875 "/></g></g></g><g fill="#003d20" fill-opacity="1"><g transform="translate(644.37398, 120.114365)"><g><path d="M 43.984375 -12.125 L 17.703125 -12.125 L 12.6875 0 L -0.734375 0 L 24.5 -56.609375 L 37.4375 -56.609375 L 62.75 0 L 49 0 Z M 39.859375 -22.078125 L 30.890625 -43.75 L 21.90625 -22.078125 Z M 39.859375 -22.078125 "/></g></g></g><path stroke-linecap="butt" transform="matrix(0.749986, 0.00452251, -0.00452251, 0.749986, 356.053319, 129.565374)" fill="none" stroke-linejoin="miter" d="M 0.0023778 7.001489 L 522.423363 7.002322 " stroke="#003d20" stroke-width="14" stroke-opacity="1" stroke-miterlimit="4"/><path stroke-linecap="round" transform="matrix(0.749986, 0.00452251, -0.00452251, 0.749986, 356.053319, 129.565374)" fill-opacity="1" fill="#003d20" fill-rule="nonzero" stroke-linejoin="round" d="M 567.922538 -14.001588 L 525.921792 -13.998323 L 525.925057 28.002423 L 567.925803 27.999158 Z M 567.922538 -14.001588 " stroke="#003d20" stroke-width="14" stroke-opacity="1" stroke-miterlimit="4"/><g fill="#f47c20" fill-opacity="1"><g transform="translate(712.840976, 119.564994)"><g><path d="M 8.796875 -49.28125 C 7.835938 -49.28125 7.007812 -49.613281 6.3125 -50.28125 C 5.625 -50.945312 5.28125 -51.734375 5.28125 -52.640625 C 5.28125 -52.960938 5.347656 -53.28125 5.484375 -53.59375 C 5.617188 -53.914062 5.84375 -54.34375 6.15625 -54.875 C 7.59375 -57.113281 9.804688 -58.875 12.796875 -60.15625 C 15.785156 -61.4375 18.988281 -62.023438 22.40625 -61.921875 C 25.757812 -61.867188 28.660156 -61.148438 31.109375 -59.765625 C 33.566406 -58.378906 35.472656 -56.441406 36.828125 -53.953125 C 38.191406 -51.472656 38.875 -48.554688 38.875 -45.203125 C 38.875 -41.523438 38.070312 -38.109375 36.46875 -34.953125 C 34.875 -31.804688 32.726562 -29.257812 30.03125 -27.3125 C 27.34375 -25.375 24.347656 -24.296875 21.046875 -24.078125 L 20.640625 -16.15625 C 20.585938 -15.144531 20.226562 -14.34375 19.5625 -13.75 C 18.894531 -13.164062 18.054688 -12.847656 17.046875 -12.796875 C 16.191406 -12.742188 15.398438 -13.0625 14.671875 -13.75 C 13.953125 -14.445312 13.625 -15.273438 13.6875 -16.234375 L 14.15625 -26.640625 C 14.257812 -27.867188 14.671875 -28.800781 15.390625 -29.4375 C 16.117188 -30.082031 17.226562 -30.40625 18.71875 -30.40625 C 21.0625 -30.40625 23.234375 -31.070312 25.234375 -32.40625 C 27.234375 -33.738281 28.847656 -35.484375 30.078125 -37.640625 C 31.304688 -39.796875 31.921875 -42.15625 31.921875 -44.71875 C 31.921875 -46.957031 31.503906 -48.847656 30.671875 -50.390625 C 29.847656 -51.941406 28.6875 -53.128906 27.1875 -53.953125 C 25.695312 -54.785156 23.890625 -55.203125 21.765625 -55.203125 C 19.628906 -55.203125 17.707031 -54.867188 16 -54.203125 C 14.289062 -53.535156 12.984375 -52.613281 12.078125 -51.4375 C 11.546875 -50.800781 11.050781 -50.28125 10.59375 -49.875 C 10.144531 -49.476562 9.546875 -49.28125 8.796875 -49.28125 Z M 16.15625 -7.921875 C 16.800781 -7.921875 17.507812 -7.757812 18.28125 -7.4375 C 19.050781 -7.113281 19.726562 -6.59375 20.3125 -5.875 C 20.90625 -5.15625 21.203125 -4.15625 21.203125 -2.875 C 21.203125 -1.863281 20.960938 -1.050781 20.484375 -0.4375 C 20.003906 0.175781 19.414062 0.613281 18.71875 0.875 C 18.03125 1.144531 17.363281 1.28125 16.71875 1.28125 C 15.382812 1.28125 14.195312 0.828125 13.15625 -0.078125 C 12.113281 -0.984375 11.59375 -2.078125 11.59375 -3.359375 C 11.65625 -4.535156 12.082031 -5.585938 12.875 -6.515625 C 13.675781 -7.453125 14.769531 -7.921875 16.15625 -7.921875 Z M 16.15625 -7.921875 "/></g></g></g><g fill="#333333" fill-opacity="1"><g transform="translate(231.801326, 226.093282)"><g><path d="M 2.828125 -10.578125 L 0.546875 -10.578125 L 2.703125 -15.6875 L 4.15625 -15.6875 Z M 6.484375 -10.578125 L 4.1875 -10.578125 L 6.34375 -15.6875 L 7.8125 -15.6875 Z M 6.484375 -10.578125 "/></g></g></g><g fill="#333333" fill-opacity="1"><g transform="translate(240.351321, 226.093282)"><g><path d="M 21.4375 -15.6875 L 16.890625 0 L 14.609375 0 L 10.953125 -12.625 L 7.171875 0 L 4.90625 0.015625 L 0.515625 -15.6875 L 2.703125 -15.6875 L 6.125 -2.390625 L 9.90625 -15.6875 L 12.1875 -15.6875 L 15.796875 -2.4375 L 19.234375 -15.6875 Z M 21.4375 -15.6875 "/></g></g></g><g fill="#333333" fill-opacity="1"><g transform="translate(262.311295, 226.093282)"><g><path d="M 7.859375 -12.5625 C 8.785156 -12.5625 9.625 -12.359375 10.375 -11.953125 C 11.125 -11.554688 11.710938 -10.960938 12.140625 -10.171875 C 12.566406 -9.378906 12.78125 -8.410156 12.78125 -7.265625 L 12.78125 0 L 10.75 0 L 10.75 -6.96875 C 10.75 -8.195312 10.441406 -9.140625 9.828125 -9.796875 C 9.210938 -10.453125 8.375 -10.78125 7.3125 -10.78125 C 6.226562 -10.78125 5.367188 -10.441406 4.734375 -9.765625 C 4.097656 -9.085938 3.78125 -8.101562 3.78125 -6.8125 L 3.78125 0 L 1.734375 0 L 1.734375 -16.65625 L 3.78125 -16.65625 L 3.78125 -10.578125 C 4.1875 -11.203125 4.742188 -11.6875 5.453125 -12.03125 C 6.171875 -12.382812 6.972656 -12.5625 7.859375 -12.5625 Z M 7.859375 -12.5625 "/></g></g></g><g fill="#333333" fill-opacity="1"><g transform="translate(276.71128, 226.093282)"><g><path d="M 12.984375 -6.640625 C 12.984375 -6.242188 12.960938 -5.832031 12.921875 -5.40625 L 3.0625 -5.40625 C 3.132812 -4.1875 3.546875 -3.234375 4.296875 -2.546875 C 5.054688 -1.867188 5.976562 -1.53125 7.0625 -1.53125 C 7.945312 -1.53125 8.6875 -1.734375 9.28125 -2.140625 C 9.875 -2.554688 10.289062 -3.109375 10.53125 -3.796875 L 12.734375 -3.796875 C 12.398438 -2.617188 11.738281 -1.65625 10.75 -0.90625 C 9.757812 -0.164062 8.53125 0.203125 7.0625 0.203125 C 5.894531 0.203125 4.847656 -0.0546875 3.921875 -0.578125 C 3.003906 -1.109375 2.28125 -1.859375 1.75 -2.828125 C 1.226562 -3.796875 0.96875 -4.914062 0.96875 -6.1875 C 0.96875 -7.457031 1.222656 -8.570312 1.734375 -9.53125 C 2.242188 -10.5 2.957031 -11.238281 3.875 -11.75 C 4.800781 -12.269531 5.863281 -12.53125 7.0625 -12.53125 C 8.226562 -12.53125 9.257812 -12.273438 10.15625 -11.765625 C 11.0625 -11.253906 11.757812 -10.550781 12.25 -9.65625 C 12.738281 -8.769531 12.984375 -7.765625 12.984375 -6.640625 Z M 10.875 -7.0625 C 10.875 -7.84375 10.695312 -8.515625 10.34375 -9.078125 C 10 -9.640625 9.53125 -10.066406 8.9375 -10.359375 C 8.351562 -10.648438 7.695312 -10.796875 6.96875 -10.796875 C 5.9375 -10.796875 5.054688 -10.460938 4.328125 -9.796875 C 3.597656 -9.140625 3.179688 -8.226562 3.078125 -7.0625 Z M 10.875 -7.0625 "/></g></g></g><g fill="#333333" fill-opacity="1"><g transform="translate(290.661261, 226.093282)"><g><path d="M 3.78125 -10.328125 C 4.132812 -11.035156 4.644531 -11.582031 5.3125 -11.96875 C 5.988281 -12.363281 6.804688 -12.5625 7.765625 -12.5625 L 7.765625 -10.4375 L 7.21875 -10.4375 C 4.925781 -10.4375 3.78125 -9.191406 3.78125 -6.703125 L 3.78125 0 L 1.734375 0 L 1.734375 -12.328125 L 3.78125 -12.328125 Z M 3.78125 -10.328125 "/></g></g></g><g fill="#333333" fill-opacity="1"><g transform="translate(299.053751, 226.093282)"><g><path d="M 12.984375 -6.640625 C 12.984375 -6.242188 12.960938 -5.832031 12.921875 -5.40625 L 3.0625 -5.40625 C 3.132812 -4.1875 3.546875 -3.234375 4.296875 -2.546875 C 5.054688 -1.867188 5.976562 -1.53125 7.0625 -1.53125 C 7.945312 -1.53125 8.6875 -1.734375 9.28125 -2.140625 C 9.875 -2.554688 10.289062 -3.109375 10.53125 -3.796875 L 12.734375 -3.796875 C 12.398438 -2.617188 11.738281 -1.65625 10.75 -0.90625 C 9.757812 -0.164062 8.53125 0.203125 7.0625 0.203125 C 5.894531 0.203125 4.847656 -0.0546875 3.921875 -0.578125 C 3.003906 -1.109375 2.28125 -1.859375 1.75 -2.828125 C 1.226562 -3.796875 0.96875 -4.914062 0.96875 -6.1875 C 0.96875 -7.457031 1.222656 -8.570312 1.734375 -9.53125 C 2.242188 -10.5 2.957031 -11.238281 3.875 -11.75 C 4.800781 -12.269531 5.863281 -12.53125 7.0625 -12.53125 C 8.226562 -12.53125 9.257812 -12.273438 10.15625 -11.765625 C 11.0625 -11.253906 11.757812 -10.550781 12.25 -9.65625 C 12.738281 -8.769531 12.984375 -7.765625 12.984375 -6.640625 Z M 10.875 -7.0625 C 10.875 -7.84375 10.695312 -8.515625 10.34375 -9.078125 C 10 -9.640625 9.53125 -10.066406 8.9375 -10.359375 C 8.351562 -10.648438 7.695312 -10.796875 6.96875 -10.796875 C 5.9375 -10.796875 5.054688 -10.460938 4.328125 -9.796875 C 3.597656 -9.140625 3.179688 -8.226562 3.078125 -7.0625 Z M 10.875 -7.0625 "/></g></g></g><g fill="#333333" fill-opacity="1"><g transform="translate(313.003732, 226.093282)"><g/></g></g><g fill="#333333" fill-opacity="1"><g transform="translate(319.011227, 226.093282)"><g><path d="M 0.96875 -6.203125 C 0.96875 -7.460938 1.222656 -8.566406 1.734375 -9.515625 C 2.242188 -10.472656 2.941406 -11.210938 3.828125 -11.734375 C 4.722656 -12.265625 5.726562 -12.53125 6.84375 -12.53125 C 7.90625 -12.53125 8.835938 -12.289062 9.640625 -11.8125 C 10.441406 -11.34375 11.03125 -10.765625 11.40625 -10.078125 L 11.40625 -12.328125 L 13.484375 -12.328125 L 13.484375 5.84375 L 11.40625 5.84375 L 11.40625 -2.265625 C 11.019531 -1.578125 10.421875 -0.992188 9.609375 -0.515625 C 8.796875 -0.0351562 7.847656 0.203125 6.765625 0.203125 C 5.691406 0.203125 4.710938 -0.0664062 3.828125 -0.609375 C 2.941406 -1.148438 2.242188 -1.90625 1.734375 -2.875 C 1.222656 -3.851562 0.96875 -4.960938 0.96875 -6.203125 Z M 11.40625 -6.1875 C 11.40625 -7.113281 11.21875 -7.921875 10.84375 -8.609375 C 10.46875 -9.304688 9.960938 -9.835938 9.328125 -10.203125 C 8.691406 -10.566406 7.988281 -10.75 7.21875 -10.75 C 6.457031 -10.75 5.757812 -10.566406 5.125 -10.203125 C 4.5 -9.847656 4 -9.328125 3.625 -8.640625 C 3.25 -7.953125 3.0625 -7.140625 3.0625 -6.203125 C 3.0625 -5.265625 3.25 -4.445312 3.625 -3.75 C 4 -3.050781 4.5 -2.515625 5.125 -2.140625 C 5.757812 -1.773438 6.457031 -1.59375 7.21875 -1.59375 C 7.988281 -1.59375 8.691406 -1.773438 9.328125 -2.140625 C 9.960938 -2.515625 10.46875 -3.050781 10.84375 -3.75 C 11.21875 -4.445312 11.40625 -5.257812 11.40625 -6.1875 Z M 11.40625 -6.1875 "/></g></g></g><g fill="#333333" fill-opacity="1"><g transform="translate(334.221214, 226.093282)"><g><path d="M 12.671875 -12.328125 L 12.671875 0 L 10.625 0 L 10.625 -1.828125 C 10.226562 -1.191406 9.679688 -0.695312 8.984375 -0.34375 C 8.285156 0.0078125 7.519531 0.1875 6.6875 0.1875 C 5.726562 0.1875 4.863281 -0.0078125 4.09375 -0.40625 C 3.332031 -0.8125 2.726562 -1.410156 2.28125 -2.203125 C 1.84375 -2.992188 1.625 -3.960938 1.625 -5.109375 L 1.625 -12.328125 L 3.640625 -12.328125 L 3.640625 -5.375 C 3.640625 -4.164062 3.945312 -3.234375 4.5625 -2.578125 C 5.175781 -1.921875 6.019531 -1.59375 7.09375 -1.59375 C 8.1875 -1.59375 9.046875 -1.929688 9.671875 -2.609375 C 10.304688 -3.285156 10.625 -4.269531 10.625 -5.5625 L 10.625 -12.328125 Z M 12.671875 -12.328125 "/></g></g></g><g fill="#333333" fill-opacity="1"><g transform="translate(348.621199, 226.093282)"><g><path d="M 12.984375 -6.640625 C 12.984375 -6.242188 12.960938 -5.832031 12.921875 -5.40625 L 3.0625 -5.40625 C 3.132812 -4.1875 3.546875 -3.234375 4.296875 -2.546875 C 5.054688 -1.867188 5.976562 -1.53125 7.0625 -1.53125 C 7.945312 -1.53125 8.6875 -1.734375 9.28125 -2.140625 C 9.875 -2.554688 10.289062 -3.109375 10.53125 -3.796875 L 12.734375 -3.796875 C 12.398438 -2.617188 11.738281 -1.65625 10.75 -0.90625 C 9.757812 -0.164062 8.53125 0.203125 7.0625 0.203125 C 5.894531 0.203125 4.847656 -0.0546875 3.921875 -0.578125 C 3.003906 -1.109375 2.28125 -1.859375 1.75 -2.828125 C 1.226562 -3.796875 0.96875 -4.914062 0.96875 -6.1875 C 0.96875 -7.457031 1.222656 -8.570312 1.734375 -9.53125 C 2.242188 -10.5 2.957031 -11.238281 3.875 -11.75 C 4.800781 -12.269531 5.863281 -12.53125 7.0625 -12.53125 C 8.226562 -12.53125 9.257812 -12.273438 10.15625 -11.765625 C 11.0625 -11.253906 11.757812 -10.550781 12.25 -9.65625 C 12.738281 -8.769531 12.984375 -7.765625 12.984375 -6.640625 Z M 10.875 -7.0625 C 10.875 -7.84375 10.695312 -8.515625 10.34375 -9.078125 C 10 -9.640625 9.53125 -10.066406 8.9375 -10.359375 C 8.351562 -10.648438 7.695312 -10.796875 6.96875 -10.796875 C 5.9375 -10.796875 5.054688 -10.460938 4.328125 -9.796875 C 3.597656 -9.140625 3.179688 -8.226562 3.078125 -7.0625 Z M 10.875 -7.0625 "/></g></g></g><g fill="#333333" fill-opacity="1"><g transform="translate(362.57118, 226.093282)"><g><path d="M 6.09375 0.203125 C 5.15625 0.203125 4.3125 0.0390625 3.5625 -0.28125 C 2.8125 -0.601562 2.21875 -1.050781 1.78125 -1.625 C 1.34375 -2.207031 1.101562 -2.875 1.0625 -3.625 L 3.171875 -3.625 C 3.234375 -3.007812 3.519531 -2.503906 4.03125 -2.109375 C 4.550781 -1.722656 5.234375 -1.53125 6.078125 -1.53125 C 6.859375 -1.53125 7.472656 -1.703125 7.921875 -2.046875 C 8.367188 -2.390625 8.59375 -2.828125 8.59375 -3.359375 C 8.59375 -3.890625 8.351562 -4.285156 7.875 -4.546875 C 7.394531 -4.816406 6.648438 -5.078125 5.640625 -5.328125 C 4.734375 -5.566406 3.988281 -5.8125 3.40625 -6.0625 C 2.832031 -6.3125 2.335938 -6.675781 1.921875 -7.15625 C 1.515625 -7.644531 1.3125 -8.289062 1.3125 -9.09375 C 1.3125 -9.71875 1.5 -10.289062 1.875 -10.8125 C 2.25 -11.34375 2.78125 -11.757812 3.46875 -12.0625 C 4.15625 -12.375 4.941406 -12.53125 5.828125 -12.53125 C 7.191406 -12.53125 8.289062 -12.1875 9.125 -11.5 C 9.96875 -10.8125 10.421875 -9.863281 10.484375 -8.65625 L 8.4375 -8.65625 C 8.394531 -9.300781 8.132812 -9.816406 7.65625 -10.203125 C 7.1875 -10.597656 6.554688 -10.796875 5.765625 -10.796875 C 5.023438 -10.796875 4.4375 -10.640625 4 -10.328125 C 3.570312 -10.015625 3.359375 -9.601562 3.359375 -9.09375 C 3.359375 -8.6875 3.488281 -8.347656 3.75 -8.078125 C 4.007812 -7.816406 4.335938 -7.609375 4.734375 -7.453125 C 5.128906 -7.296875 5.679688 -7.125 6.390625 -6.9375 C 7.273438 -6.6875 7.992188 -6.445312 8.546875 -6.21875 C 9.097656 -5.988281 9.570312 -5.640625 9.96875 -5.171875 C 10.375 -4.710938 10.582031 -4.109375 10.59375 -3.359375 C 10.59375 -2.679688 10.40625 -2.070312 10.03125 -1.53125 C 9.65625 -0.988281 9.125 -0.5625 8.4375 -0.25 C 7.757812 0.0507812 6.976562 0.203125 6.09375 0.203125 Z M 6.09375 0.203125 "/></g></g></g><g fill="#333333" fill-opacity="1"><g transform="translate(374.31617, 226.093282)"><g><path d="M 4.234375 -10.640625 L 4.234375 -3.375 C 4.234375 -2.769531 4.359375 -2.34375 4.609375 -2.09375 C 4.867188 -1.851562 5.3125 -1.734375 5.9375 -1.734375 L 7.453125 -1.734375 L 7.453125 0 L 5.609375 0 C 4.460938 0 3.601562 -0.257812 3.03125 -0.78125 C 2.46875 -1.3125 2.1875 -2.175781 2.1875 -3.375 L 2.1875 -10.640625 L 0.578125 -10.640625 L 0.578125 -12.328125 L 2.1875 -12.328125 L 2.1875 -15.4375 L 4.234375 -15.4375 L 4.234375 -12.328125 L 7.453125 -12.328125 L 7.453125 -10.640625 Z M 4.234375 -10.640625 "/></g></g></g><g fill="#333333" fill-opacity="1"><g transform="translate(382.506157, 226.093282)"><g><path d="M 2.796875 -14.328125 C 2.398438 -14.328125 2.066406 -14.460938 1.796875 -14.734375 C 1.523438 -15.003906 1.390625 -15.335938 1.390625 -15.734375 C 1.390625 -16.117188 1.523438 -16.445312 1.796875 -16.71875 C 2.066406 -16.988281 2.398438 -17.125 2.796875 -17.125 C 3.171875 -17.125 3.488281 -16.988281 3.75 -16.71875 C 4.007812 -16.445312 4.140625 -16.117188 4.140625 -15.734375 C 4.140625 -15.335938 4.007812 -15.003906 3.75 -14.734375 C 3.488281 -14.460938 3.171875 -14.328125 2.796875 -14.328125 Z M 3.78125 -12.328125 L 3.78125 0 L 1.734375 0 L 1.734375 -12.328125 Z M 3.78125 -12.328125 "/></g></g></g><g fill="#333333" fill-opacity="1"><g transform="translate(388.041149, 226.093282)"><g><path d="M 7.109375 0.203125 C 5.953125 0.203125 4.90625 -0.0546875 3.96875 -0.578125 C 3.03125 -1.109375 2.296875 -1.859375 1.765625 -2.828125 C 1.234375 -3.796875 0.96875 -4.914062 0.96875 -6.1875 C 0.96875 -7.445312 1.238281 -8.5625 1.78125 -9.53125 C 2.332031 -10.5 3.078125 -11.238281 4.015625 -11.75 C 4.960938 -12.269531 6.023438 -12.53125 7.203125 -12.53125 C 8.367188 -12.53125 9.425781 -12.269531 10.375 -11.75 C 11.320312 -11.238281 12.066406 -10.5 12.609375 -9.53125 C 13.160156 -8.570312 13.4375 -7.457031 13.4375 -6.1875 C 13.4375 -4.914062 13.15625 -3.796875 12.59375 -2.828125 C 12.03125 -1.859375 11.265625 -1.109375 10.296875 -0.578125 C 9.335938 -0.0546875 8.273438 0.203125 7.109375 0.203125 Z M 7.109375 -1.59375 C 7.847656 -1.59375 8.535156 -1.765625 9.171875 -2.109375 C 9.816406 -2.453125 10.335938 -2.96875 10.734375 -3.65625 C 11.140625 -4.351562 11.34375 -5.195312 11.34375 -6.1875 C 11.34375 -7.175781 11.144531 -8.015625 10.75 -8.703125 C 10.363281 -9.398438 9.851562 -9.914062 9.21875 -10.25 C 8.59375 -10.582031 7.910156 -10.75 7.171875 -10.75 C 6.421875 -10.75 5.734375 -10.582031 5.109375 -10.25 C 4.492188 -9.914062 4 -9.398438 3.625 -8.703125 C 3.25 -8.015625 3.0625 -7.175781 3.0625 -6.1875 C 3.0625 -5.1875 3.242188 -4.335938 3.609375 -3.640625 C 3.972656 -2.953125 4.460938 -2.4375 5.078125 -2.09375 C 5.691406 -1.757812 6.367188 -1.59375 7.109375 -1.59375 Z M 7.109375 -1.59375 "/></g></g></g><g fill="#333333" fill-opacity="1"><g transform="translate(402.441134, 226.093282)"><g><path d="M 7.734375 -12.5625 C 9.234375 -12.5625 10.445312 -12.101562 11.375 -11.1875 C 12.3125 -10.28125 12.78125 -8.972656 12.78125 -7.265625 L 12.78125 0 L 10.75 0 L 10.75 -6.96875 C 10.75 -8.195312 10.441406 -9.140625 9.828125 -9.796875 C 9.210938 -10.453125 8.375 -10.78125 7.3125 -10.78125 C 6.226562 -10.78125 5.367188 -10.441406 4.734375 -9.765625 C 4.097656 -9.085938 3.78125 -8.101562 3.78125 -6.8125 L 3.78125 0 L 1.734375 0 L 1.734375 -12.328125 L 3.78125 -12.328125 L 3.78125 -10.578125 C 4.1875 -11.203125 4.738281 -11.6875 5.4375 -12.03125 C 6.132812 -12.382812 6.898438 -12.5625 7.734375 -12.5625 Z M 7.734375 -12.5625 "/></g></g></g><g fill="#333333" fill-opacity="1"><g transform="translate(416.841119, 226.093282)"><g/></g></g><g fill="#333333" fill-opacity="1"><g transform="translate(422.848615, 226.093282)"><g><path d="M 3.78125 -10.03125 C 4.195312 -10.769531 4.8125 -11.367188 5.625 -11.828125 C 6.4375 -12.296875 7.359375 -12.53125 8.390625 -12.53125 C 9.503906 -12.53125 10.503906 -12.265625 11.390625 -11.734375 C 12.273438 -11.210938 12.972656 -10.472656 13.484375 -9.515625 C 13.992188 -8.566406 14.25 -7.460938 14.25 -6.203125 C 14.25 -4.960938 13.992188 -3.851562 13.484375 -2.875 C 12.972656 -1.90625 12.269531 -1.148438 11.375 -0.609375 C 10.476562 -0.0664062 9.484375 0.203125 8.390625 0.203125 C 7.328125 0.203125 6.394531 -0.0234375 5.59375 -0.484375 C 4.789062 -0.953125 4.1875 -1.546875 3.78125 -2.265625 L 3.78125 0 L 1.734375 0 L 1.734375 -16.65625 L 3.78125 -16.65625 Z M 12.15625 -6.203125 C 12.15625 -7.140625 11.96875 -7.953125 11.59375 -8.640625 C 11.21875 -9.328125 10.707031 -9.847656 10.0625 -10.203125 C 9.425781 -10.566406 8.726562 -10.75 7.96875 -10.75 C 7.21875 -10.75 6.519531 -10.566406 5.875 -10.203125 C 5.238281 -9.835938 4.726562 -9.304688 4.34375 -8.609375 C 3.96875 -7.910156 3.78125 -7.101562 3.78125 -6.1875 C 3.78125 -5.257812 3.96875 -4.445312 4.34375 -3.75 C 4.726562 -3.050781 5.238281 -2.515625 5.875 -2.140625 C 6.519531 -1.773438 7.21875 -1.59375 7.96875 -1.59375 C 8.726562 -1.59375 9.425781 -1.773438 10.0625 -2.140625 C 10.707031 -2.515625 11.21875 -3.050781 11.59375 -3.75 C 11.96875 -4.445312 12.15625 -5.265625 12.15625 -6.203125 Z M 12.15625 -6.203125 "/></g></g></g><g fill="#333333" fill-opacity="1"><g transform="translate(438.058589, 226.093282)"><g><path d="M 12.984375 -6.640625 C 12.984375 -6.242188 12.960938 -5.832031 12.921875 -5.40625 L 3.0625 -5.40625 C 3.132812 -4.1875 3.546875 -3.234375 4.296875 -2.546875 C 5.054688 -1.867188 5.976562 -1.53125 7.0625 -1.53125 C 7.945312 -1.53125 8.6875 -1.734375 9.28125 -2.140625 C 9.875 -2.554688 10.289062 -3.109375 10.53125 -3.796875 L 12.734375 -3.796875 C 12.398438 -2.617188 11.738281 -1.65625 10.75 -0.90625 C 9.757812 -0.164062 8.53125 0.203125 7.0625 0.203125 C 5.894531 0.203125 4.847656 -0.0546875 3.921875 -0.578125 C 3.003906 -1.109375 2.28125 -1.859375 1.75 -2.828125 C 1.226562 -3.796875 0.96875 -4.914062 0.96875 -6.1875 C 0.96875 -7.457031 1.222656 -8.570312 1.734375 -9.53125 C 2.242188 -10.5 2.957031 -11.238281 3.875 -11.75 C 4.800781 -12.269531 5.863281 -12.53125 7.0625 -12.53125 C 8.226562 -12.53125 9.257812 -12.273438 10.15625 -11.765625 C 11.0625 -11.253906 11.757812 -10.550781 12.25 -9.65625 C 12.738281 -8.769531 12.984375 -7.765625 12.984375 -6.640625 Z M 10.875 -7.0625 C 10.875 -7.84375 10.695312 -8.515625 10.34375 -9.078125 C 10 -9.640625 9.53125 -10.066406 8.9375 -10.359375 C 8.351562 -10.648438 7.695312 -10.796875 6.96875 -10.796875 C 5.9375 -10.796875 5.054688 -10.460938 4.328125 -9.796875 C 3.597656 -9.140625 3.179688 -8.226562 3.078125 -7.0625 Z M 10.875 -7.0625 "/></g></g></g><g fill="#333333" fill-opacity="1"><g transform="translate(452.00857, 226.093282)"><g><path d="M 0.96875 -6.1875 C 0.96875 -7.457031 1.222656 -8.566406 1.734375 -9.515625 C 2.242188 -10.472656 2.953125 -11.210938 3.859375 -11.734375 C 4.765625 -12.265625 5.800781 -12.53125 6.96875 -12.53125 C 8.488281 -12.53125 9.738281 -12.160156 10.71875 -11.421875 C 11.695312 -10.691406 12.347656 -9.675781 12.671875 -8.375 L 10.46875 -8.375 C 10.25 -9.125 9.835938 -9.710938 9.234375 -10.140625 C 8.628906 -10.578125 7.875 -10.796875 6.96875 -10.796875 C 5.800781 -10.796875 4.859375 -10.394531 4.140625 -9.59375 C 3.421875 -8.789062 3.0625 -7.65625 3.0625 -6.1875 C 3.0625 -4.695312 3.421875 -3.546875 4.140625 -2.734375 C 4.859375 -1.929688 5.800781 -1.53125 6.96875 -1.53125 C 7.875 -1.53125 8.625 -1.738281 9.21875 -2.15625 C 9.820312 -2.582031 10.238281 -3.179688 10.46875 -3.953125 L 12.671875 -3.953125 C 12.335938 -2.691406 11.675781 -1.679688 10.6875 -0.921875 C 9.695312 -0.171875 8.457031 0.203125 6.96875 0.203125 C 5.800781 0.203125 4.765625 -0.0546875 3.859375 -0.578125 C 2.953125 -1.109375 2.242188 -1.851562 1.734375 -2.8125 C 1.222656 -3.769531 0.96875 -4.894531 0.96875 -6.1875 Z M 0.96875 -6.1875 "/></g></g></g><g fill="#333333" fill-opacity="1"><g transform="translate(465.666062, 226.093282)"><g><path d="M 7.109375 0.203125 C 5.953125 0.203125 4.90625 -0.0546875 3.96875 -0.578125 C 3.03125 -1.109375 2.296875 -1.859375 1.765625 -2.828125 C 1.234375 -3.796875 0.96875 -4.914062 0.96875 -6.1875 C 0.96875 -7.445312 1.238281 -8.5625 1.78125 -9.53125 C 2.332031 -10.5 3.078125 -11.238281 4.015625 -11.75 C 4.960938 -12.269531 6.023438 -12.53125 7.203125 -12.53125 C 8.367188 -12.53125 9.425781 -12.269531 10.375 -11.75 C 11.320312 -11.238281 12.066406 -10.5 12.609375 -9.53125 C 13.160156 -8.570312 13.4375 -7.457031 13.4375 -6.1875 C 13.4375 -4.914062 13.15625 -3.796875 12.59375 -2.828125 C 12.03125 -1.859375 11.265625 -1.109375 10.296875 -0.578125 C 9.335938 -0.0546875 8.273438 0.203125 7.109375 0.203125 Z M 7.109375 -1.59375 C 7.847656 -1.59375 8.535156 -1.765625 9.171875 -2.109375 C 9.816406 -2.453125 10.335938 -2.96875 10.734375 -3.65625 C 11.140625 -4.351562 11.34375 -5.195312 11.34375 -6.1875 C 11.34375 -7.175781 11.144531 -8.015625 10.75 -8.703125 C 10.363281 -9.398438 9.851562 -9.914062 9.21875 -10.25 C 8.59375 -10.582031 7.910156 -10.75 7.171875 -10.75 C 6.421875 -10.75 5.734375 -10.582031 5.109375 -10.25 C 4.492188 -9.914062 4 -9.398438 3.625 -8.703125 C 3.25 -8.015625 3.0625 -7.175781 3.0625 -6.1875 C 3.0625 -5.1875 3.242188 -4.335938 3.609375 -3.640625 C 3.972656 -2.953125 4.460938 -2.4375 5.078125 -2.09375 C 5.691406 -1.757812 6.367188 -1.59375 7.109375 -1.59375 Z M 7.109375 -1.59375 "/></g></g></g><g fill="#333333" fill-opacity="1"><g transform="translate(480.066048, 226.093282)"><g><path d="M 16.5625 -12.5625 C 17.519531 -12.5625 18.375 -12.359375 19.125 -11.953125 C 19.875 -11.554688 20.46875 -10.960938 20.90625 -10.171875 C 21.34375 -9.378906 21.5625 -8.410156 21.5625 -7.265625 L 21.5625 0 L 19.53125 0 L 19.53125 -6.96875 C 19.53125 -8.195312 19.222656 -9.140625 18.609375 -9.796875 C 18.003906 -10.453125 17.1875 -10.78125 16.15625 -10.78125 C 15.09375 -10.78125 14.242188 -10.4375 13.609375 -9.75 C 12.984375 -9.070312 12.671875 -8.085938 12.671875 -6.796875 L 12.671875 0 L 10.640625 0 L 10.640625 -6.96875 C 10.640625 -8.195312 10.332031 -9.140625 9.71875 -9.796875 C 9.113281 -10.453125 8.296875 -10.78125 7.265625 -10.78125 C 6.203125 -10.78125 5.351562 -10.4375 4.71875 -9.75 C 4.09375 -9.070312 3.78125 -8.085938 3.78125 -6.796875 L 3.78125 0 L 1.734375 0 L 1.734375 -12.328125 L 3.78125 -12.328125 L 3.78125 -10.546875 C 4.1875 -11.191406 4.726562 -11.6875 5.40625 -12.03125 C 6.09375 -12.382812 6.847656 -12.5625 7.671875 -12.5625 C 8.703125 -12.5625 9.613281 -12.328125 10.40625 -11.859375 C 11.207031 -11.390625 11.800781 -10.707031 12.1875 -9.8125 C 12.539062 -10.675781 13.113281 -11.347656 13.90625 -11.828125 C 14.695312 -12.316406 15.582031 -12.5625 16.5625 -12.5625 Z M 16.5625 -12.5625 "/></g></g></g><g fill="#333333" fill-opacity="1"><g transform="translate(503.241018, 226.093282)"><g><path d="M 12.984375 -6.640625 C 12.984375 -6.242188 12.960938 -5.832031 12.921875 -5.40625 L 3.0625 -5.40625 C 3.132812 -4.1875 3.546875 -3.234375 4.296875 -2.546875 C 5.054688 -1.867188 5.976562 -1.53125 7.0625 -1.53125 C 7.945312 -1.53125 8.6875 -1.734375 9.28125 -2.140625 C 9.875 -2.554688 10.289062 -3.109375 10.53125 -3.796875 L 12.734375 -3.796875 C 12.398438 -2.617188 11.738281 -1.65625 10.75 -0.90625 C 9.757812 -0.164062 8.53125 0.203125 7.0625 0.203125 C 5.894531 0.203125 4.847656 -0.0546875 3.921875 -0.578125 C 3.003906 -1.109375 2.28125 -1.859375 1.75 -2.828125 C 1.226562 -3.796875 0.96875 -4.914062 0.96875 -6.1875 C 0.96875 -7.457031 1.222656 -8.570312 1.734375 -9.53125 C 2.242188 -10.5 2.957031 -11.238281 3.875 -11.75 C 4.800781 -12.269531 5.863281 -12.53125 7.0625 -12.53125 C 8.226562 -12.53125 9.257812 -12.273438 10.15625 -11.765625 C 11.0625 -11.253906 11.757812 -10.550781 12.25 -9.65625 C 12.738281 -8.769531 12.984375 -7.765625 12.984375 -6.640625 Z M 10.875 -7.0625 C 10.875 -7.84375 10.695312 -8.515625 10.34375 -9.078125 C 10 -9.640625 9.53125 -10.066406 8.9375 -10.359375 C 8.351562 -10.648438 7.695312 -10.796875 6.96875 -10.796875 C 5.9375 -10.796875 5.054688 -10.460938 4.328125 -9.796875 C 3.597656 -9.140625 3.179688 -8.226562 3.078125 -7.0625 Z M 10.875 -7.0625 "/></g></g></g><g fill="#333333" fill-opacity="1"><g transform="translate(517.190999, 226.093282)"><g><path d="M 6.09375 0.203125 C 5.15625 0.203125 4.3125 0.0390625 3.5625 -0.28125 C 2.8125 -0.601562 2.21875 -1.050781 1.78125 -1.625 C 1.34375 -2.207031 1.101562 -2.875 1.0625 -3.625 L 3.171875 -3.625 C 3.234375 -3.007812 3.519531 -2.503906 4.03125 -2.109375 C 4.550781 -1.722656 5.234375 -1.53125 6.078125 -1.53125 C 6.859375 -1.53125 7.472656 -1.703125 7.921875 -2.046875 C 8.367188 -2.390625 8.59375 -2.828125 8.59375 -3.359375 C 8.59375 -3.890625 8.351562 -4.285156 7.875 -4.546875 C 7.394531 -4.816406 6.648438 -5.078125 5.640625 -5.328125 C 4.734375 -5.566406 3.988281 -5.8125 3.40625 -6.0625 C 2.832031 -6.3125 2.335938 -6.675781 1.921875 -7.15625 C 1.515625 -7.644531 1.3125 -8.289062 1.3125 -9.09375 C 1.3125 -9.71875 1.5 -10.289062 1.875 -10.8125 C 2.25 -11.34375 2.78125 -11.757812 3.46875 -12.0625 C 4.15625 -12.375 4.941406 -12.53125 5.828125 -12.53125 C 7.191406 -12.53125 8.289062 -12.1875 9.125 -11.5 C 9.96875 -10.8125 10.421875 -9.863281 10.484375 -8.65625 L 8.4375 -8.65625 C 8.394531 -9.300781 8.132812 -9.816406 7.65625 -10.203125 C 7.1875 -10.597656 6.554688 -10.796875 5.765625 -10.796875 C 5.023438 -10.796875 4.4375 -10.640625 4 -10.328125 C 3.570312 -10.015625 3.359375 -9.601562 3.359375 -9.09375 C 3.359375 -8.6875 3.488281 -8.347656 3.75 -8.078125 C 4.007812 -7.816406 4.335938 -7.609375 4.734375 -7.453125 C 5.128906 -7.296875 5.679688 -7.125 6.390625 -6.9375 C 7.273438 -6.6875 7.992188 -6.445312 8.546875 -6.21875 C 9.097656 -5.988281 9.570312 -5.640625 9.96875 -5.171875 C 10.375 -4.710938 10.582031 -4.109375 10.59375 -3.359375 C 10.59375 -2.679688 10.40625 -2.070312 10.03125 -1.53125 C 9.65625 -0.988281 9.125 -0.5625 8.4375 -0.25 C 7.757812 0.0507812 6.976562 0.203125 6.09375 0.203125 Z M 6.09375 0.203125 "/></g></g></g><g fill="#333333" fill-opacity="1"><g transform="translate(528.935978, 226.093282)"><g/></g></g><g fill="#333333" fill-opacity="1"><g transform="translate(534.943485, 226.093282)"><g><path d="M 4.234375 -10.640625 L 4.234375 -3.375 C 4.234375 -2.769531 4.359375 -2.34375 4.609375 -2.09375 C 4.867188 -1.851562 5.3125 -1.734375 5.9375 -1.734375 L 7.453125 -1.734375 L 7.453125 0 L 5.609375 0 C 4.460938 0 3.601562 -0.257812 3.03125 -0.78125 C 2.46875 -1.3125 2.1875 -2.175781 2.1875 -3.375 L 2.1875 -10.640625 L 0.578125 -10.640625 L 0.578125 -12.328125 L 2.1875 -12.328125 L 2.1875 -15.4375 L 4.234375 -15.4375 L 4.234375 -12.328125 L 7.453125 -12.328125 L 7.453125 -10.640625 Z M 4.234375 -10.640625 "/></g></g></g><g fill="#333333" fill-opacity="1"><g transform="translate(543.133471, 226.093282)"><g><path d="M 7.859375 -12.5625 C 8.785156 -12.5625 9.625 -12.359375 10.375 -11.953125 C 11.125 -11.554688 11.710938 -10.960938 12.140625 -10.171875 C 12.566406 -9.378906 12.78125 -8.410156 12.78125 -7.265625 L 12.78125 0 L 10.75 0 L 10.75 -6.96875 C 10.75 -8.195312 10.441406 -9.140625 9.828125 -9.796875 C 9.210938 -10.453125 8.375 -10.78125 7.3125 -10.78125 C 6.226562 -10.78125 5.367188 -10.441406 4.734375 -9.765625 C 4.097656 -9.085938 3.78125 -8.101562 3.78125 -6.8125 L 3.78125 0 L 1.734375 0 L 1.734375 -16.65625 L 3.78125 -16.65625 L 3.78125 -10.578125 C 4.1875 -11.203125 4.742188 -11.6875 5.453125 -12.03125 C 6.171875 -12.382812 6.972656 -12.5625 7.859375 -12.5625 Z M 7.859375 -12.5625 "/></g></g></g><g fill="#333333" fill-opacity="1"><g transform="translate(557.533457, 226.093282)"><g><path d="M 12.984375 -6.640625 C 12.984375 -6.242188 12.960938 -5.832031 12.921875 -5.40625 L 3.0625 -5.40625 C 3.132812 -4.1875 3.546875 -3.234375 4.296875 -2.546875 C 5.054688 -1.867188 5.976562 -1.53125 7.0625 -1.53125 C 7.945312 -1.53125 8.6875 -1.734375 9.28125 -2.140625 C 9.875 -2.554688 10.289062 -3.109375 10.53125 -3.796875 L 12.734375 -3.796875 C 12.398438 -2.617188 11.738281 -1.65625 10.75 -0.90625 C 9.757812 -0.164062 8.53125 0.203125 7.0625 0.203125 C 5.894531 0.203125 4.847656 -0.0546875 3.921875 -0.578125 C 3.003906 -1.109375 2.28125 -1.859375 1.75 -2.828125 C 1.226562 -3.796875 0.96875 -4.914062 0.96875 -6.1875 C 0.96875 -7.457031 1.222656 -8.570312 1.734375 -9.53125 C 2.242188 -10.5 2.957031 -11.238281 3.875 -11.75 C 4.800781 -12.269531 5.863281 -12.53125 7.0625 -12.53125 C 8.226562 -12.53125 9.257812 -12.273438 10.15625 -11.765625 C 11.0625 -11.253906 11.757812 -10.550781 12.25 -9.65625 C 12.738281 -8.769531 12.984375 -7.765625 12.984375 -6.640625 Z M 10.875 -7.0625 C 10.875 -7.84375 10.695312 -8.515625 10.34375 -9.078125 C 10 -9.640625 9.53125 -10.066406 8.9375 -10.359375 C 8.351562 -10.648438 7.695312 -10.796875 6.96875 -10.796875 C 5.9375 -10.796875 5.054688 -10.460938 4.328125 -9.796875 C 3.597656 -9.140625 3.179688 -8.226562 3.078125 -7.0625 Z M 10.875 -7.0625 "/></g></g></g><g fill="#333333" fill-opacity="1"><g transform="translate(571.483437, 226.093282)"><g/></g></g><g fill="#333333" fill-opacity="1"><g transform="translate(577.490921, 226.093282)"><g><path d="M 0.96875 -6.203125 C 0.96875 -7.460938 1.222656 -8.566406 1.734375 -9.515625 C 2.242188 -10.472656 2.941406 -11.210938 3.828125 -11.734375 C 4.722656 -12.265625 5.71875 -12.53125 6.8125 -12.53125 C 7.894531 -12.53125 8.832031 -12.296875 9.625 -11.828125 C 10.425781 -11.367188 11.019531 -10.785156 11.40625 -10.078125 L 11.40625 -12.328125 L 13.484375 -12.328125 L 13.484375 0 L 11.40625 0 L 11.40625 -2.296875 C 11 -1.578125 10.394531 -0.976562 9.59375 -0.5 C 8.789062 -0.03125 7.859375 0.203125 6.796875 0.203125 C 5.703125 0.203125 4.710938 -0.0664062 3.828125 -0.609375 C 2.941406 -1.148438 2.242188 -1.90625 1.734375 -2.875 C 1.222656 -3.851562 0.96875 -4.960938 0.96875 -6.203125 Z M 11.40625 -6.1875 C 11.40625 -7.113281 11.21875 -7.921875 10.84375 -8.609375 C 10.46875 -9.304688 9.960938 -9.835938 9.328125 -10.203125 C 8.691406 -10.566406 7.988281 -10.75 7.21875 -10.75 C 6.457031 -10.75 5.757812 -10.566406 5.125 -10.203125 C 4.5 -9.847656 4 -9.328125 3.625 -8.640625 C 3.25 -7.953125 3.0625 -7.140625 3.0625 -6.203125 C 3.0625 -5.265625 3.25 -4.445312 3.625 -3.75 C 4 -3.050781 4.5 -2.515625 5.125 -2.140625 C 5.757812 -1.773438 6.457031 -1.59375 7.21875 -1.59375 C 7.988281 -1.59375 8.691406 -1.773438 9.328125 -2.140625 C 9.960938 -2.515625 10.46875 -3.050781 10.84375 -3.75 C 11.21875 -4.445312 11.40625 -5.257812 11.40625 -6.1875 Z M 11.40625 -6.1875 "/></g></g></g><g fill="#333333" fill-opacity="1"><g transform="translate(592.700919, 226.093282)"><g><path d="M 7.734375 -12.5625 C 9.234375 -12.5625 10.445312 -12.101562 11.375 -11.1875 C 12.3125 -10.28125 12.78125 -8.972656 12.78125 -7.265625 L 12.78125 0 L 10.75 0 L 10.75 -6.96875 C 10.75 -8.195312 10.441406 -9.140625 9.828125 -9.796875 C 9.210938 -10.453125 8.375 -10.78125 7.3125 -10.78125 C 6.226562 -10.78125 5.367188 -10.441406 4.734375 -9.765625 C 4.097656 -9.085938 3.78125 -8.101562 3.78125 -6.8125 L 3.78125 0 L 1.734375 0 L 1.734375 -12.328125 L 3.78125 -12.328125 L 3.78125 -10.578125 C 4.1875 -11.203125 4.738281 -11.6875 5.4375 -12.03125 C 6.132812 -12.382812 6.898438 -12.5625 7.734375 -12.5625 Z M 7.734375 -12.5625 "/></g></g></g><g fill="#333333" fill-opacity="1"><g transform="translate(607.100905, 226.093282)"><g><path d="M 6.09375 0.203125 C 5.15625 0.203125 4.3125 0.0390625 3.5625 -0.28125 C 2.8125 -0.601562 2.21875 -1.050781 1.78125 -1.625 C 1.34375 -2.207031 1.101562 -2.875 1.0625 -3.625 L 3.171875 -3.625 C 3.234375 -3.007812 3.519531 -2.503906 4.03125 -2.109375 C 4.550781 -1.722656 5.234375 -1.53125 6.078125 -1.53125 C 6.859375 -1.53125 7.472656 -1.703125 7.921875 -2.046875 C 8.367188 -2.390625 8.59375 -2.828125 8.59375 -3.359375 C 8.59375 -3.890625 8.351562 -4.285156 7.875 -4.546875 C 7.394531 -4.816406 6.648438 -5.078125 5.640625 -5.328125 C 4.734375 -5.566406 3.988281 -5.8125 3.40625 -6.0625 C 2.832031 -6.3125 2.335938 -6.675781 1.921875 -7.15625 C 1.515625 -7.644531 1.3125 -8.289062 1.3125 -9.09375 C 1.3125 -9.71875 1.5 -10.289062 1.875 -10.8125 C 2.25 -11.34375 2.78125 -11.757812 3.46875 -12.0625 C 4.15625 -12.375 4.941406 -12.53125 5.828125 -12.53125 C 7.191406 -12.53125 8.289062 -12.1875 9.125 -11.5 C 9.96875 -10.8125 10.421875 -9.863281 10.484375 -8.65625 L 8.4375 -8.65625 C 8.394531 -9.300781 8.132812 -9.816406 7.65625 -10.203125 C 7.1875 -10.597656 6.554688 -10.796875 5.765625 -10.796875 C 5.023438 -10.796875 4.4375 -10.640625 4 -10.328125 C 3.570312 -10.015625 3.359375 -9.601562 3.359375 -9.09375 C 3.359375 -8.6875 3.488281 -8.347656 3.75 -8.078125 C 4.007812 -7.816406 4.335938 -7.609375 4.734375 -7.453125 C 5.128906 -7.296875 5.679688 -7.125 6.390625 -6.9375 C 7.273438 -6.6875 7.992188 -6.445312 8.546875 -6.21875 C 9.097656 -5.988281 9.570312 -5.640625 9.96875 -5.171875 C 10.375 -4.710938 10.582031 -4.109375 10.59375 -3.359375 C 10.59375 -2.679688 10.40625 -2.070312 10.03125 -1.53125 C 9.65625 -0.988281 9.125 -0.5625 8.4375 -0.25 C 7.757812 0.0507812 6.976562 0.203125 6.09375 0.203125 Z M 6.09375 0.203125 "/></g></g></g><g fill="#333333" fill-opacity="1"><g transform="translate(618.845884, 226.093282)"><g><path d="M 18.15625 -12.328125 L 14.3125 0 L 12.1875 0 L 9.21875 -9.78125 L 6.25 0 L 4.140625 0 L 0.265625 -12.328125 L 2.359375 -12.328125 L 5.203125 -1.984375 L 8.25 -12.328125 L 10.34375 -12.328125 L 13.34375 -1.953125 L 16.125 -12.328125 Z M 18.15625 -12.328125 "/></g></g></g><g fill="#333333" fill-opacity="1"><g transform="translate(637.295864, 226.093282)"><g><path d="M 12.984375 -6.640625 C 12.984375 -6.242188 12.960938 -5.832031 12.921875 -5.40625 L 3.0625 -5.40625 C 3.132812 -4.1875 3.546875 -3.234375 4.296875 -2.546875 C 5.054688 -1.867188 5.976562 -1.53125 7.0625 -1.53125 C 7.945312 -1.53125 8.6875 -1.734375 9.28125 -2.140625 C 9.875 -2.554688 10.289062 -3.109375 10.53125 -3.796875 L 12.734375 -3.796875 C 12.398438 -2.617188 11.738281 -1.65625 10.75 -0.90625 C 9.757812 -0.164062 8.53125 0.203125 7.0625 0.203125 C 5.894531 0.203125 4.847656 -0.0546875 3.921875 -0.578125 C 3.003906 -1.109375 2.28125 -1.859375 1.75 -2.828125 C 1.226562 -3.796875 0.96875 -4.914062 0.96875 -6.1875 C 0.96875 -7.457031 1.222656 -8.570312 1.734375 -9.53125 C 2.242188 -10.5 2.957031 -11.238281 3.875 -11.75 C 4.800781 -12.269531 5.863281 -12.53125 7.0625 -12.53125 C 8.226562 -12.53125 9.257812 -12.273438 10.15625 -11.765625 C 11.0625 -11.253906 11.757812 -10.550781 12.25 -9.65625 C 12.738281 -8.769531 12.984375 -7.765625 12.984375 -6.640625 Z M 10.875 -7.0625 C 10.875 -7.84375 10.695312 -8.515625 10.34375 -9.078125 C 10 -9.640625 9.53125 -10.066406 8.9375 -10.359375 C 8.351562 -10.648438 7.695312 -10.796875 6.96875 -10.796875 C 5.9375 -10.796875 5.054688 -10.460938 4.328125 -9.796875 C 3.597656 -9.140625 3.179688 -8.226562 3.078125 -7.0625 Z M 10.875 -7.0625 "/></g></g></g><g fill="#333333" fill-opacity="1"><g transform="translate(651.245845, 226.093282)"><g><path d="M 3.78125 -10.328125 C 4.132812 -11.035156 4.644531 -11.582031 5.3125 -11.96875 C 5.988281 -12.363281 6.804688 -12.5625 7.765625 -12.5625 L 7.765625 -10.4375 L 7.21875 -10.4375 C 4.925781 -10.4375 3.78125 -9.191406 3.78125 -6.703125 L 3.78125 0 L 1.734375 0 L 1.734375 -12.328125 L 3.78125 -12.328125 Z M 3.78125 -10.328125 "/></g></g></g><g fill="#333333" fill-opacity="1"><g transform="translate(659.638346, 226.093282)"><g><path d="M 2.046875 -15.6875 L 4.3125 -15.6875 L 2.15625 -10.578125 L 0.71875 -10.578125 Z M 5.6875 -15.6875 L 7.96875 -15.6875 L 5.8125 -10.578125 L 4.34375 -10.578125 Z M 5.6875 -15.6875 "/></g></g></g><path stroke-linecap="round" transform="matrix(0.75, 0, 0, 0.75, 263.866374, 229.091861)" fill="none" stroke-linejoin="miter" d="M 4.001085 4.002519 L 472.501123 4.002519 " stroke="#003d20" stroke-width="8" stroke-opacity="1" stroke-miterlimit="4"/></svg>